<svg xmlns="http://www.w3.org/2000/svg" width="65" height="65" viewBox="0 0 65 65">
  <path id="phone-handset-line" d="M54.481,71.888a8.691,8.691,0,0,1-1.881-.211A63.343,63.343,0,0,1,21.333,54.844,63.332,63.332,0,0,1,4.4,23.582a8.936,8.936,0,0,1,2.54-8.234l7.525-7.407a3.628,3.628,0,0,1,5.625.634L29.5,22.793a3.134,3.134,0,0,1-.207,3.655l-4.722,5.771A36.443,36.443,0,0,0,32.414,43.55a36.2,36.2,0,0,0,11.419,7.869l5.85-4.752a3.03,3.03,0,0,1,3.5-.231l14.2,9.388a3.853,3.853,0,0,1,1.8,2.8,3.9,3.9,0,0,1-1.03,3.182L60.82,69.233a8.816,8.816,0,0,1-6.34,2.655ZM17.063,10.711,9.538,18.118a4.956,4.956,0,0,0-1.411,4.617A59.447,59.447,0,0,0,23.949,52.092,59.588,59.588,0,0,0,53.371,67.925a5.1,5.1,0,0,0,4.7-1.423l7.337-7.426L51.7,50.015l-6.283,5.117a1.848,1.848,0,0,1-1.731.327,37.658,37.658,0,0,1-13.846-9.138,37.548,37.548,0,0,1-9.162-13.852,1.955,1.955,0,0,1,.451-1.828l5.079-6.214Z" transform="translate(-4.219 -6.888)"/>
</svg>
