<svg xmlns="http://www.w3.org/2000/svg" width="20" height="20" viewBox="0 0 20 20">
  <path id="linkedin" d="M0,0V20H20V0ZM4.905,3.932a1.566,1.566,0,0,1,1.607,1.5,1.555,1.555,0,0,1-1.627,1.5H4.862a1.562,1.562,0,0,1-1.586-1.5,1.576,1.576,0,0,1,1.628-1.5Zm8.5,3.975a3.206,3.206,0,0,1,2.368.952,4.486,4.486,0,0,1,.952,2.959v4.99H13.848V12.157c-.007-.872-.305-1.931-1.459-1.967a1.641,1.641,0,0,0-1.479,1.057,1.885,1.885,0,0,0-.106.7v4.863H7.928c.011-2.431.026-4.862.021-7.294q0-1.036-.021-1.395H10.8V9.345a3.875,3.875,0,0,1,.878-.941,2.976,2.976,0,0,1,1.722-.5Zm-9.957.212H6.321v8.689H3.446V8.119Z"/>
</svg>
