<svg xmlns="http://www.w3.org/2000/svg" width="150" height="122.923" viewBox="0 0 150 122.923">
  <g id="book" transform="translate(0 -8.335)">
    <path id="Path_11" data-name="Path 11" d="M30.131,10.05c14.991-3,34.707-3.394,48.188,10.069a4.688,4.688,0,0,1,1.369,3.319V126.563a4.688,4.688,0,0,1-8.006,3.319c-7.9-7.912-19.828-9.928-32.531-8.625a100.631,100.631,0,0,0-32.362,9.5A4.688,4.688,0,0,1,0,126.563V23.438a4.688,4.688,0,0,1,2.588-4.191l2.1,4.191-2.1-4.191.019-.009.037-.019.122-.056q1.02-.508,2.063-.966A121.482,121.482,0,0,1,30.142,10.05ZM9.375,26.438v92.887a108.588,108.588,0,0,1,28.819-7.388c10.716-1.106,22.378-.216,32.119,5.25V25.481c-9.966-8.709-24.666-8.963-38.344-6.225A112.107,112.107,0,0,0,9.375,26.438Z" fill-rule="evenodd"/>
    <path id="Path_12" data-name="Path 12" d="M119.869,10.05c-14.981-3-34.707-3.394-48.188,10.069a4.688,4.688,0,0,0-1.368,3.319V126.563a4.688,4.688,0,0,0,8.006,3.319c7.9-7.912,19.828-9.928,32.531-8.625a100.632,100.632,0,0,1,32.362,9.5A4.688,4.688,0,0,0,150,126.563V23.438a4.688,4.688,0,0,0-2.588-4.191l-2.1,4.191,2.1-4.191-.019-.009-.037-.019-.122-.056-.441-.216q-3.689-1.723-7.491-3.188a121.5,121.5,0,0,0-19.434-5.709Zm20.756,16.388v92.887a108.588,108.588,0,0,0-28.819-7.388c-10.716-1.106-22.378-.216-32.119,5.25V25.481c9.966-8.709,24.666-8.963,38.344-6.225a112.088,112.088,0,0,1,22.594,7.182Z" fill-rule="evenodd"/>
  </g>
</svg>
