<svg xmlns="http://www.w3.org/2000/svg" width="131.119" height="131.581" viewBox="0 0 131.119 131.581">
  <path id="tools" d="M56.719,9.375a45.938,45.938,0,0,0-25.313,7.5l30,30a9.844,9.844,0,0,1,.938,14.063A9.844,9.844,0,0,1,48.281,60L17.344,30A46.125,46.125,0,0,0,9.375,56.719a47.531,47.531,0,0,0,47.344,47.344,51.1,51.1,0,0,0,12.188-1.406l31.406,31.406a23.533,23.533,0,0,0,33.281-33.281L102.188,69.376a51.094,51.094,0,0,0,1.406-12.188A46.875,46.875,0,0,0,56.719,9.375Zm37.5,47.344a35.672,35.672,0,0,1-1.406,9.844l-1.406,5.156,3.75,3.75,31.406,31.406a13.5,13.5,0,0,1,4.219,9.844,12.75,12.75,0,0,1-4.219,9.844,13.594,13.594,0,0,1-19.688,0L75.469,95.157l-3.75-3.75-5.156,1.406a35.672,35.672,0,0,1-9.844,1.406A38.766,38.766,0,0,1,30,83.438,35.766,35.766,0,0,1,18.75,56.719a39.047,39.047,0,0,1,1.406-10.313L40.781,67.031a19.406,19.406,0,0,0,27.656.938A19.406,19.406,0,0,0,67.5,40.313L46.875,19.688a30.234,30.234,0,0,1,9.375-1.406A38.766,38.766,0,0,1,82.969,29.063a39.8,39.8,0,0,1,11.25,27.656Z" transform="translate(-9.368 -9.375)"/>
</svg>
